<svg version="1.2" xmlns="http://www.w3.org/2000/svg" viewBox="0 0 200 39" width="200" height="39">
	<title>logo-svg</title>
	<style>
		.s0 { fill: #ffffff } 
	</style>
	<path id="Layer" fill-rule="evenodd" class="s0" d="m0 23.5l6-1.4q0.6 2.6 3.5 2.6 1.9 0 1.9-1.1 0-0.1 0-0.1 0-0.1 0-0.2-0.1-0.1-0.1-0.1-0.1-0.1-0.1-0.2-0.3-0.2-1.2-0.5l-2.4-0.9-0.7-0.2q-0.7-0.3-1.1-0.4-0.4-0.2-1.2-0.6-0.8-0.4-1.3-0.9-0.6-0.5-1.1-1.1-0.6-0.6-0.9-1.4-0.3-0.8-0.3-1.8 0-3.1 2.5-5 2.4-2 6.1-2 6.2 0 8.4 5.4l-6 1.7q-0.8-1.7-2.4-1.7-1.4 0-1.4 1 0 0.1 0.1 0.2 0 0.1 0 0.2 0.1 0 0.1 0.1 0.1 0.1 0.2 0.1 0.3 0.3 1 0.5l2.4 1q6.5 2.2 6.7 6.7 0 3.4-2.6 5.1-2.7 1.8-6.6 1.8-8.4 0-9.5-6.8zm21-2.4v-12.4h8.2v11.6q0 3.5 2.5 3.5 2.5 0 2.5-3.5v-11.6h8.2v21.1h-8.2v-2.6q-1.9 3.1-5.9 3.1-7.3 0-7.3-9.2zm25.1 8.7v-21.1h8.2v2.6q1.9-3.1 5.9-3.1 7.4 0 7.4 9.2v12.4h-8.3v-11.6q0-3.5-2.5-3.5-2.5 0-2.5 3.5v11.6zm24.9 0v-21.1h8.3v2.6q1.9-3.1 5.9-3.1 7.3 0 7.3 9.2v12.4h-8.3v-11.6q0-3.5-2.4-3.5-2.5 0-2.5 3.5v11.6zm26 9l4.9-11-8.8-19.1h9l3.7 10.8 4.1-10.8h8.6l-13.4 30.1zm20.8-15.3l6-1.4q0.6 2.6 3.4 2.6 2 0 2-1.1 0-0.1 0-0.1 0-0.1-0.1-0.2 0-0.1 0-0.1-0.1-0.1-0.1-0.2-0.3-0.2-1.2-0.5l-2.4-0.9-0.7-0.2q-0.7-0.3-1.1-0.4-0.4-0.2-1.3-0.6-0.8-0.4-1.3-0.9-0.5-0.5-1.1-1.1-0.5-0.6-0.8-1.4-0.3-0.8-0.3-1.8 0-3.1 2.5-5 2.4-2 6.1-2 6.2 0 8.4 5.4l-6 1.7q-0.8-1.7-2.5-1.7-1.3 0-1.3 1 0 0.1 0 0.2 0 0.1 0.1 0.2 0 0 0.1 0.1 0 0.1 0.1 0.1 0.3 0.3 1.1 0.5l2.3 1q6.5 2.2 6.7 6.7 0 3.4-2.6 5.1-2.6 1.8-6.6 1.8-8.3 0-9.4-6.8zm21.9-17.1q-1.2-1.1-1.2-2.7 0-1.7 1.1-2.7 1.2-1 3.5-1 2.3 0 3.5 1 1.1 1 1.1 2.7 0 1.6-1.2 2.6-1.2 1.1-3.4 1.1-2.2 0-3.4-1zm-0.7 23.4v-21.1h8.2v21.1c0 0-8.2 0-8.2 0zm13.7-2.7q-2.9-3.1-2.9-7.8 0-4.8 2.9-7.9 2.8-3.2 7.1-3.2 4.2 0 6 3.1v-10.5h8.2v29h-8.2v-2.6q-1.8 3.1-6 3.1-4.3 0-7.1-3.2zm12.1-4.5q1.1-1.3 1.1-3.3 0-2.1-1.1-3.4-1-1.4-2.8-1.4-1.8 0-2.8 1.4-1.1 1.3-1.1 3.4 0 2 1.1 3.3 1 1.4 2.8 1.4 1.8 0 2.8-1.4zm15.2 4.5q-3.4-3.1-3.4-7.8 0-4.6 3.2-7.8 3.2-3.3 8.6-3.3 5.1 0 8.4 2.9 3.3 2.9 3.3 7.9 0 1.2-0.2 1.9h-15.6q0 1 1.5 2.1 1.5 1.1 3.9 1.1 3.2 0 5.7-2.1l3.4 4.6q-3.5 3.7-9.8 3.7-5.7 0-9-3.2zm11.3-12.3q-1.2-0.8-2.8-0.8-1.7 0-2.9 0.8-1.2 0.8-1.3 2.3h8.3q-0.1-1.5-1.3-2.3z"/>
</svg>